<svg width="44" height="44" viewBox="0 0 44 44" fill="none" xmlns="http://www.w3.org/2000/svg">
<path d="M40.3334 5.5H3.66671C3.18048 5.5 2.71416 5.69315 2.37034 6.03697C2.02653 6.38079 1.83337 6.8471 1.83337 7.33333V36.6667C1.83337 37.1529 2.02653 37.6192 2.37034 37.963C2.71416 38.3068 3.18048 38.5 3.66671 38.5H40.3334C40.8196 38.5 41.2859 38.3068 41.6297 37.963C41.9736 37.6192 42.1667 37.1529 42.1667 36.6667V7.33333C42.1667 6.8471 41.9736 6.38079 41.6297 6.03697C41.2859 5.69315 40.8196 5.5 40.3334 5.5ZM38.5 34.8333H5.50004V9.16667H38.5V34.8333ZM7.57537 13.75C7.69545 13.5407 7.85566 13.3572 8.04681 13.21C8.23797 13.0627 8.45631 12.9547 8.68931 12.892C8.92231 12.8293 9.16539 12.8132 9.40462 12.8447C9.64384 12.8762 9.8745 12.9545 10.0834 13.0753L22 19.888L33.9167 13.0753C34.3388 12.8322 34.8401 12.7667 35.3104 12.8932C35.7808 13.0198 36.1816 13.328 36.4247 13.75C36.6678 14.172 36.7333 14.6734 36.6068 15.1437C36.4803 15.6141 36.1721 16.0149 35.75 16.258L22.9167 23.5913C22.6398 23.7495 22.3263 23.8327 22.0074 23.8327C21.6884 23.8327 21.375 23.7495 21.098 23.5913L8.26471 16.258C8.0542 16.1391 7.86927 15.9798 7.72057 15.7892C7.57187 15.5986 7.46233 15.3805 7.39826 15.1474C7.3342 14.9143 7.31686 14.6708 7.34726 14.431C7.37765 14.1912 7.45518 13.9597 7.57537 13.75ZM15.9629 24.3632C16.3066 24.707 16.4996 25.1732 16.4996 25.6593C16.4996 26.1455 16.3066 26.6117 15.9629 26.9555L12.2962 30.6222C11.9504 30.9561 11.4873 31.1409 11.0066 31.1367C10.5259 31.1326 10.0661 30.9398 9.72621 30.5998C9.38629 30.2599 9.19348 29.8001 9.1893 29.3194C9.18513 28.8387 9.36992 28.3756 9.70387 28.0298L13.3705 24.3632C13.7153 24.0204 14.1821 23.8287 14.6682 23.8301C15.1544 23.8314 15.62 24.0258 15.9629 24.3705V24.3632ZM34.2962 28.0298C34.4713 28.199 34.611 28.4013 34.7071 28.6249C34.8031 28.8486 34.8537 29.0892 34.8558 29.3326C34.8579 29.576 34.8116 29.8174 34.7194 30.0427C34.6272 30.2681 34.4911 30.4728 34.3189 30.6449C34.1468 30.817 33.9421 30.9532 33.7168 31.0453C33.4915 31.1375 33.2501 31.1839 33.0066 31.1818C32.7632 31.1797 32.5226 31.1291 32.299 31.033C32.0753 30.9369 31.873 30.7973 31.7039 30.6222L28.0372 26.9555C27.7033 26.6097 27.5185 26.1466 27.5226 25.6659C27.5268 25.1852 27.7196 24.7254 28.0595 24.3855C28.3995 24.0456 28.8593 23.8528 29.34 23.8486C29.8207 23.8444 30.2838 24.0292 30.6295 24.3632L34.2962 28.0298Z" fill="black"/>
</svg>
