<svg width="289" height="289" viewBox="0 0 289 289" fill="none" xmlns="http://www.w3.org/2000/svg">
<circle cx="144.5" cy="144.5" r="144.5" fill="#352F44"/>
<path d="M112.76 187L86.24 149.92V187H62.72V102.4H86.24V138.88L112.52 102.4H139.64L108.56 143.44L141.2 187H112.76ZM183.27 102.4C192.15 102.4 199.91 104.2 206.55 107.8C213.27 111.32 218.43 116.28 222.03 122.68C225.63 129.08 227.43 136.4 227.43 144.64C227.43 152.8 225.59 160.08 221.91 166.48C218.31 172.88 213.15 177.92 206.43 181.6C199.79 185.2 192.07 187 183.27 187H149.79V102.4H183.27ZM181.47 166.24C188.35 166.24 193.75 164.36 197.67 160.6C201.59 156.84 203.55 151.52 203.55 144.64C203.55 137.68 201.59 132.32 197.67 128.56C193.75 124.72 188.35 122.8 181.47 122.8H173.31V166.24H181.47Z" fill="white"/>
</svg>
