<svg width="40" height="40" viewBox="0 0 40 40" fill="none" xmlns="http://www.w3.org/2000/svg">
<path d="M2.12836 14.7633C4.34336 23.5633 16.4384 35.6666 25.2367 37.8716C26.4244 38.1727 27.6447 38.326 28.87 38.3283C31.1984 38.3272 33.491 37.7549 35.5467 36.6616C36.267 36.2854 36.8887 35.7451 37.3617 35.0843C37.8347 34.4235 38.1458 33.6608 38.2697 32.8577C38.3936 32.0546 38.327 31.2336 38.0752 30.461C37.8233 29.6884 37.3934 28.9858 36.82 28.4099L33.3434 24.9333C32.6064 24.1966 31.6646 23.699 30.6407 23.5055C29.6168 23.3119 28.5584 23.4314 27.6034 23.8483C26.6922 24.2417 25.8612 24.7993 25.1517 25.4933C24.855 25.7883 24.3084 25.8349 23.5234 25.6216C21.4654 24.7852 19.5958 23.5451 18.0248 21.9745C16.4539 20.4038 15.2134 18.5344 14.3767 16.4766C14.1667 15.6916 14.21 15.1433 14.5067 14.8483C15.2014 14.1378 15.7596 13.3056 16.1534 12.3933C16.5693 11.4386 16.6882 10.3809 16.4947 9.35777C16.3012 8.33462 15.8042 7.3934 15.0684 6.6566L11.5917 3.1816C11.0224 2.60536 10.3243 2.17275 9.55491 1.91948C8.78552 1.6662 7.96693 1.59952 7.16669 1.72493C6.35738 1.84378 5.58786 2.15309 4.92143 2.62742C4.255 3.10174 3.71072 3.72752 3.33336 4.45327C1.65453 7.6177 1.22451 11.297 2.12836 14.7633ZM6.28836 5.99993C6.42441 5.73951 6.62026 5.51505 6.85986 5.34499C7.09946 5.17492 7.37597 5.0641 7.66669 5.0216C7.75874 5.00693 7.85182 4.99969 7.94503 4.99993C8.18497 4.99985 8.42255 5.04739 8.64398 5.1398C8.86542 5.23221 9.06632 5.36765 9.23503 5.53826L12.71 9.01327C12.9714 9.27153 13.1491 9.60236 13.2201 9.96284C13.2911 10.3233 13.2522 10.6968 13.1084 11.0349C12.8808 11.5775 12.556 12.074 12.15 12.4999C11.5539 13.135 11.1462 13.9235 10.9725 14.7771C10.7989 15.6306 10.8661 16.5157 11.1667 17.3333C12.37 21.8333 18.175 27.6316 22.6667 28.8333C23.4874 29.1333 24.3755 29.1987 25.2314 29.022C26.0872 28.8454 26.8768 28.4337 27.5117 27.8333C27.9351 27.4277 28.4287 27.1025 28.9684 26.8733C29.3067 26.7291 29.6805 26.6899 30.0413 26.761C30.4022 26.832 30.7333 27.0099 30.9917 27.2716L34.4667 30.7466C34.6709 30.9487 34.8243 31.1964 34.9141 31.4694C35.0039 31.7423 35.0277 32.0327 34.9834 32.3166C34.94 32.6077 34.8281 32.8844 34.6569 33.1237C34.4856 33.3631 34.2599 33.5583 33.9984 33.6933C31.5648 35.0011 28.7243 35.3325 26.055 34.6199C18.4817 32.7349 7.26669 21.5199 5.36003 13.9499C4.64841 11.2782 4.98032 8.43581 6.28836 5.99993Z" fill="black"/>
</svg>
